<svg width="8" height="10" viewBox="0 0 8 10" fill="none" xmlns="http://www.w3.org/2000/svg">
<path d="M4.01847 0.330017H3.97107C2.67468 0.330017 1.62477 1.36372 1.62477 2.64009V3.83013H2.80977V2.65176C2.80977 2.01357 3.33472 1.49672 3.98292 1.49672H4.00662C4.65481 1.49672 5.17977 2.01357 5.17977 2.65176V3.83013H6.36477V2.64009C6.36477 1.36372 5.31486 0.330017 4.01847 0.330017ZM1.62477 3.83013H2.80977V4.99683H1.62477V3.83013ZM5.17977 3.83013H6.36477V4.99683H5.17977V3.83013ZM5.18 4.99683H2.81H1.625C0.970883 4.99683 0.440002 5.51951 0.440002 6.16353V7.91359C0.440002 8.88011 1.22806 9.66364 2.19753 9.66364H5.79247C6.76313 9.66364 7.55 8.88685 7.55 7.91359V6.16353C7.55 5.51951 7.01912 4.99683 6.365 4.99683H5.18Z" fill="#42526E"/>
</svg>
