<svg xmlns="http://www.w3.org/2000/svg" xmlns:xlink="http://www.w3.org/1999/xlink" version="1.1" id="Layer_1" x="0px" y="0px" viewBox="0 0 512 512" style="enable-background:new 0 0 512 512;" xml:space="preserve">
<style type="text/css">
	.st0{fill-rule:evenodd;clip-rule:evenodd;}
</style>
<g>
	<path fill='#0747a6' class="st0" d="M512,256c0,141.4-114.6,256-256,256S0,397.4,0,256S114.6,0,256,0S512,114.6,512,256z M210.3,193.1H168   c-1-60.4,45.8-81.1,88.2-81.1c44.7,0,85.5,23.4,85.5,71.7c0,34.6-20.3,51-39.8,65.8c-23.6,17.9-32.3,24.6-32.3,47.6v11.4h-41.9   l-0.2-14.8c-1.2-29.7,15.8-47.9,37.4-63.6c18.9-14.2,30.9-23.6,30.9-43.9c0-26.4-20.1-37.4-42-37.4   C224.9,148.8,210.3,168.1,210.3,193.1L210.3,193.1z M250.3,399.2c-18.7,0-32.3-12.6-32.3-29.7c0-17.7,13.6-30.1,32.3-30.1   c19.5,0,32.9,12.4,32.9,30.1C283.2,386.6,269.8,399.2,250.3,399.2z"/>
</g>
</svg>